<?xml version="1.0" encoding="UTF-8"?><svg id="EXPORT" xmlns="http://www.w3.org/2000/svg" width="62.94" height="63.94" viewBox="0 0 62.94 63.94"><circle cx="31.29" cy="32.33" r="30" fill="#5a4a77" stroke-width="0"/><path d="M62.89,32.33c1.3,24.26-21.88,38.17-43.41,28.53-2.4-.94-4.68-2.13-7.14-2.97-.56-.12-1.16-.22-1.64-.46-.94-.53-1.51-1.51-2.15-2.34-1.28-1.68-2.63-3.26-3.77-5.03C-5.79,33.35,2.13,11.74,19.21,3.15c7.52-4.01,16.67-4.19,24.4-.56,1.93.85,3.76,1.88,5.48,3.1.89.57,1.41,1.61,2.26,2.19.76.69,1.94.93,2.99,1.39,1.82,1.2,3.82,2.41,4.81,4.43.52.98.22,2.44.15,3.65-.13,1.18.46,2.01.77,3.05,1.28,3.84,2.65,7.75,2.82,11.92h0ZM59.7,32.33c.16-3.69-.02-7.63-1.75-11.04-.49-.84-.82-1.76-1.75-2.27-.86-.48-2.28-.6-2.88-1.4-.96-.86-1.45-2.26-2.03-3.41-.75-1.17-1-2.84-1.99-3.82-.73-.58-1.76-.75-2.47-1.31l-2.4-1.32c-7.35-3.61-16.16-3.97-24-1.69C9.32,9.29,1.91,20.96,2.58,32.33c.31,7.51,3.53,14.82,9.04,19.68.82.48,1.69.84,2.21,1.61.3.34.49.83.72,1.3,1.25,2.04,3.5,3.29,5.61,4.32,6.91,2.79,15.2,1.81,21.71-1.37,9.55-4.93,17.13-14.56,17.83-25.53h0Z" fill="#161616" stroke-width="0"/><path d="M46.39,31.96c-7.85,5.27-15.54,11.65-24.14,15.72-1.51-11.88-1.59-20.82-.2-32.72,8.64,4.53,16.5,11.3,24.35,17Z" fill="#e0d08d" stroke-width="0"/><path d="M47.83,31.97c-8.22,5.67-16.7,12.89-26.06,16.69-.11-.5-.17-.75-.27-1.24-1.1-5.4-.57-11.29-1.84-16.14-.02-.08.13-.18.15-.25.03-.12.02-.59,0-.75-.04-.95-.14-2.06.01-3.01.48-3.08,1.52-12.61,1.98-12.84.4-.21,3.64,2.11,5.8,3.44,3.44,2.12,7.98,5.04,11.21,8.13.97.93,2.61,1.6,3.72,2.48.26.21.36.46.54.63,1.17,1.12,3,1.97,4.75,2.88h0ZM44.94,31.95c-.93-.86-2.16-2.13-3.39-2.78-.9-.47-2.02-1.1-2.45-1.77-.28-.42-.92-.87-1.45-1.23-3.87-2.56-7.4-5.73-10.49-8-1.78-1.31-3.76-2.24-5.4-2.9.27-.18.4-.27.67-.45-.52,3.26-.7,4.89-.91,8.18-.21,2.4-.02,4.97-.09,7.22,0,.16-.04.64,0,.78.03.08.17.18.15.26-.56,2.5-.37,5.52.02,8.28.38,2.72.93,5.61,1.4,8.39-.52-.34-.78-.52-1.31-.87,6.41-2.63,14.91-9.92,23.27-15.1h0Z" fill="#161616" stroke-width="0"/></svg>