<?xml version="1.0" encoding="UTF-8"?><svg id="EXPORT" xmlns="http://www.w3.org/2000/svg" width="62.95" height="63.2" viewBox="0 0 62.95 63.2"><circle cx="31.3" cy="31.58" r="30" fill="#5a4a77" stroke-width="0"/><path d="M62.89,31.58c1.31,24.25-21.9,38.19-43.41,28.53-1.89-.75-3.82-1.44-5.63-2.42-.91-.47-2.19-.5-3.15-1.02-.94-.54-1.51-1.51-2.15-2.35C-3.13,41.53-2.86,21.92,9.47,9.75,16.63,2.38,27.28-.86,37.54.19c2.09.24,4.17.75,6.04,1.73,1.81,1.06,3.2,2.78,4.93,3.89.8.61,1.89.85,2.82,1.35.87.56,1.66,1.25,2.45,1.93,2.27,2.16,4.6,4.47,5.24,7.67,1.98,4.72,3.73,9.59,3.87,14.82h0ZM59.71,31.58c.17-4.61-.62-9.54-3.22-13.46-2.12-1.9-3.39-4.35-5.25-6.48-1.46-1.19-2.41-2.95-3.82-4.18-2.47-1.44-5.48-1.33-8.05-2.48-2.63-.85-5.27-1.79-8.07-1.94-3.74-.14-7.53.45-11.08,1.78C1.12,11.94-3.4,37.83,11.62,51.25c.82.48,1.68.84,2.21,1.6.62.65.89,1.83,1.58,2.49,0,0,2.27,1.7,2.27,1.7,3.91,2.83,9.01,3.23,13.61,2.92,14.41-.92,27.44-14.01,28.41-28.4h0Z" fill="#161616" stroke-width="0"/><path d="M51.34,30.4c-6.75-6.77-13.34-13.88-19.43-21.25-6.59,7.47-13.66,14.69-20.9,21.53,2.78.02,4.18.03,6.96.03.07,7.29.31,10.94,1.17,18.23,3.41.37,5.11.49,8.52.56-.14-4.61-.19-6.92-.25-11.53,3.13.04,4.7.03,7.83-.02-.09,4.6-.16,6.9-.35,11.5,3.28-.12,4.93-.24,8.21-.63.95-7.32,1.2-10.98,1.27-18.3,2.79-.04,4.18-.07,6.96-.12Z" fill="#e0d08d" stroke-width="0"/><path d="M49.96,29.86c-5.33-5.17-13.79-14.2-18.67-20.09.49.01.74.02,1.23.04-1.58,1.77-3.17,3.71-4.75,5.64-4.77,5.79-10.57,11.26-15.99,15.94-.32-.67-.48-1-.79-1.66,2.59.11,7.33-.2,7.78.26.69.72-.02,6.6.18,9.89.21,3.66.36,5.49.76,9.14-.26-.27-.39-.4-.64-.67,3.43.37,5.14.48,8.57.56-.22.24-.32.36-.54.59-.16-4.61-.22-6.91-.29-11.52,0-.24,0-.36,0-.6,2.82.01,5.64-.08,8.46-.31.34-.02.51-.03.86-.05.01,1.25.1,2.61-.07,3.8-.41,2.77-.51,5.74-.61,8.62-.2-.23-.31-.34-.51-.57,3.3-.11,4.95-.23,8.25-.61-.25.26-.37.38-.62.64.18-1.53.36-3.07.47-4.59.36-4.9-.63-13.79.2-14.76.48-.56,4.43-.12,6.73.31h0ZM52.72,30.94c-2.64.42-5.7.74-8.35.65.44-.43.66-.64,1.11-1.07-.28,4.55-.69,9.13-1.25,13.68-.21,1.71-.41,3.43-.66,5.14-.21.03-.32.04-.54.07-3.26.4-4.89.53-8.16.65-.21,0-.32.01-.53.02.13-3.08.29-6.29,0-9.22-.09-.91-.01-1.92.04-2.88.35.35.52.53.87.88-2.6-.11-5.2-.21-7.81-.26.24-.24.36-.36.59-.6.05,4.61.09,6.92.2,11.54,0,.24,0,.36.01.61-.22,0-.33,0-.55-.01-3.39-.07-5.08-.19-8.46-.57-.23-.03-.34-.04-.57-.07-.03-.24-.05-.37-.08-.61-.65-5.37-1.23-12.89-1.4-18.17.32.31.48.46.81.78-3.09.08-9.4.23-9.4.23-.16-.36,7.89-8.3,12.07-12.58,3.82-3.9,10.5-11.34,11.26-11.34,2.39.02,13.65,15.67,20.81,23.13h0Z" fill="#161616" stroke-width="0"/></svg>