<?xml version="1.0" encoding="UTF-8"?><svg id="EXPORT" xmlns="http://www.w3.org/2000/svg" width="62.94" height="63.94" viewBox="0 0 62.94 63.94"><circle cx="31.29" cy="32.33" r="30" fill="#5a4a77" stroke-width="0"/><path d="M62.89,32.33c1.3,24.26-21.88,38.17-43.41,28.53-2.4-.94-4.68-2.13-7.14-2.97-.56-.12-1.16-.22-1.64-.46-.94-.53-1.51-1.51-2.15-2.34-1.28-1.68-2.63-3.26-3.77-5.03C-5.79,33.35,2.13,11.74,19.21,3.15c7.52-4.01,16.67-4.19,24.4-.56,1.93.85,3.76,1.88,5.48,3.1.89.57,1.41,1.61,2.26,2.19.76.69,1.94.93,2.99,1.39,1.82,1.2,3.82,2.41,4.81,4.43.52.98.22,2.44.15,3.65-.13,1.18.46,2.01.77,3.05,1.28,3.84,2.65,7.75,2.82,11.92h0ZM59.7,32.33c.16-3.69-.02-7.63-1.75-11.04-.49-.84-.82-1.76-1.75-2.27-.86-.48-2.28-.6-2.88-1.4-.96-.86-1.45-2.26-2.03-3.41-.75-1.17-1-2.84-1.99-3.82-.73-.58-1.76-.75-2.47-1.31l-2.4-1.32c-7.35-3.61-16.16-3.97-24-1.69C9.32,9.29,1.91,20.96,2.58,32.33c.31,7.51,3.53,14.82,9.04,19.68.82.48,1.69.84,2.21,1.61.3.34.49.83.72,1.3,1.25,2.04,3.5,3.29,5.61,4.32,6.91,2.79,15.2,1.81,21.71-1.37,9.55-4.93,17.13-14.56,17.83-25.53h0Z" fill="#161616" stroke-width="0"/><path d="M31.6,11.05c5.41,8.3,11.39,16.37,17.53,24.14-4.43.19-6.65.27-11.09.37.64,7.12.88,10.66.98,17.67-6.06.69-9.09.68-15.16-.04.07-6.94.3-10.45.92-17.51-4.56-.02-6.84-.06-11.4-.2,6.4-7.83,12.59-16.02,18.21-24.43Z" fill="#e0d08d" stroke-width="0"/><path d="M31.61,9.52c6.06,8.98,19.12,26.31,19.12,26.32-.12.28-4.92.26-7.14.25-1.84,0-3.69-.05-5.54,0,.21-.23.32-.35.53-.58.44,5.57,2.12,17.23,1.18,18.36-.71.85-6.99.9-10.19.6-1.12-.11-4.4-.28-5.63-.42-.34-.04-.51-.06-.84-.11-.05-3.19-.03-6.41.16-9.6.15-2.5.58-6.15.84-8.72.28.31.43.46.71.77-3.32-.17-8.04-.3-11.4-.49-.36-.02-.54-.03-.9-.05.2-.24.31-.36.51-.61,4.47-4.78,8.26-11.86,12.93-16.91,1.02-1.1,1.26-2.31,2.28-3.65.2-.26.45-.34.61-.5,1.09-1.12,1.85-2.92,2.77-4.64h0ZM31.59,12.58c-1.11,1.15-2.33,2.76-3.08,4.27-.42.84-1.19,1.16-1.73,1.77-.19.22-.35.66-.53.91-3.85,5.67-8.94,11.04-12.5,16.2-.15-.26-.23-.4-.38-.66,2.28.02,3.42.03,5.7.02,2.15-.02,6.19-.42,6.47-.14.08.08-.29,4.69-.31,5.24-.16,4.4-.45,8.82-.58,13.17-.34-.41-.51-.61-.85-1.02,1.28.15,4.58.48,5.73.44,2.96-.1,6.37.02,9.55-.31-.3.36-.46.55-.76.91.16-5.36-1.58-17.53-.86-18.33.68-.76,7.84-.57,11.68-.67-.3.52-.44.78-.74,1.31-6.03-7.28-11.8-15.09-16.81-23.11h0Z" fill="#161616" stroke-width="0"/></svg>