<?xml version="1.0" encoding="UTF-8"?><svg id="EXPORT" xmlns="http://www.w3.org/2000/svg" width="62.94" height="63.94" viewBox="0 0 62.94 63.94"><circle cx="31.29" cy="32.33" r="30" fill="#5a4a77" stroke-width="0"/><path d="M62.89,32.33c1.3,24.26-21.88,38.17-43.41,28.53-2.4-.94-4.68-2.13-7.14-2.97-.56-.12-1.16-.22-1.64-.46-.94-.53-1.51-1.51-2.15-2.34-1.28-1.68-2.63-3.26-3.77-5.03C-5.79,33.35,2.13,11.74,19.21,3.15c7.52-4.01,16.67-4.19,24.4-.56,1.93.85,3.76,1.88,5.48,3.1.89.57,1.41,1.61,2.26,2.19.76.69,1.94.93,2.99,1.39,1.82,1.2,3.82,2.41,4.81,4.43.52.98.22,2.44.15,3.65-.13,1.18.46,2.01.77,3.05,1.28,3.84,2.65,7.75,2.82,11.92h0ZM59.7,32.33c.16-3.69-.02-7.63-1.75-11.04-.49-.84-.82-1.76-1.75-2.27-.86-.48-2.28-.6-2.88-1.4-.96-.86-1.45-2.26-2.03-3.41-.75-1.17-1-2.84-1.99-3.82-.73-.58-1.76-.75-2.47-1.31,0,0-2.4-1.32-2.4-1.32-7.35-3.61-16.16-3.97-24-1.69C9.32,9.29,1.91,20.96,2.58,32.33c.31,7.51,3.53,14.82,9.04,19.68.82.48,1.69.84,2.21,1.61.3.34.49.83.72,1.3,1.25,2.04,3.5,3.29,5.61,4.32,6.91,2.79,15.2,1.81,21.71-1.37,9.55-4.93,17.13-14.56,17.83-25.53h0Z" fill="#161616" stroke-width="0"/><path d="M28.46,50.66c-3.58-.51-5.39-1.01-9.03-2.45-1.35-11.68-1.33-20.58.09-32.25,3.24-1.34,4.84-1.83,8.03-2.41-.31,12.38.12,24.76.91,37.11Z" fill="#e0d08d" stroke-width="0"/><path d="M28.77,51.04c-3.19-.21-9.06-.93-10.11-2.33-1.16-1.54-.86-8.58-1.07-12.63-.12-2.23-.56-4.75-.53-6.95,0-.32.11-.67.36-1.02.51-.7.14-1.34.17-1.99.03-.66.13-1.33.22-2,.39-3.2.67-4.81,1.35-8.04.03-.13.04-.2.07-.33.13-.06.19-.09.32-.14,3.23-1.42,4.82-1.96,7.98-2.61.1-.02.15-.03.25-.05.44.84.53,1.87.47,2.86,0,.94,0,1.42,0,2.36-.15,6.19.31,13.05-.01,18.82-.08,1.52.57,3.42.58,5.02,0,.39.03.83-.09,1.09-.41.86-.35,2.05-.33,3.11.02,1.51.15,3.1.36,4.82h0ZM28.14,50.28c.01-2.15-.04-4.77-.43-6.89-.14-.78-.65-1.9-.66-2.7-.01-1.07.26-2.16.29-3.09.07-1.68-.33-3.92-.38-5.79-.13-4.37-.49-9.4-.31-13.62.05-1.24-.11-3.3.42-4.56.19.19.28.28.47.47-3.21.5-4.83.95-8.07,2.21.16-.19.23-.28.39-.47-.51,3.22-.68,4.84-.89,8.09-.03.68-.05,1.35-.11,2.03-.06.68-.49,1.4-.07,2.04.64.94.09,2.97.02,4.08-.32,5.13.27,10.94,1.45,16.41-.37-.45-.56-.68-.94-1.12,2.87,1.19,5.78,2.26,8.82,2.91h0Z" fill="#161616" stroke-width="0"/><path d="M42.57,48.7c-3.39,1.21-5.08,1.59-8.47,1.92.21-12.4-.24-24.81-.96-37.19,3.36.23,5.04.57,8.4,1.72,1.73,12.08,2.09,21.42,1.02,33.56Z" fill="#e0d08d" stroke-width="0"/><path d="M43.3,49.27c-3.41,1.52-9.41,2.77-9.95,2.22-1.34-1.35,1.15-13.49-.34-19.41-.02-.09.12-.21.14-.3.04-.16,0-.67-.02-.87-.24-2.64.04-5.44-.08-8.17-.09-3.73-.15-5.6-.28-9.34,0-.18,0-.28-.02-.46.15.01.23.02.38.03,3.34.3,5.02.69,8.37,1.91.09.03.14.05.23.08.61,2.94,1.28,5.94,1.73,8.85.63,4.09,1.03,8.76.62,12.64-.15,1.41.26,3.02.19,4.35-.04.64-.35,1.3-.44,1.96-.28,2.09-.31,4.29-.53,6.48h0ZM41.8,48.07c.73-2.97,1.01-5.28.84-8.05-.08-1.32.6-2.66.48-3.95-.36-3.84-.44-8.53-.78-12.59-.23-2.77-.5-5.56-1.03-8.41.11.13.16.19.27.32-3.36-1.07-5.05-1.37-8.43-1.53.14-.17.22-.26.36-.42.29,3.73.43,5.59.67,9.32.13,2.71.46,5.68.55,8.12,0,.19-.03.7.04.87.03.09.18.19.16.29-1.1,5.7.1,12.34-.08,18.48-.28-.3-.42-.45-.71-.76,2.69-.46,5.17-1.03,7.66-1.68h0Z" fill="#161616" stroke-width="0"/></svg>