<?xml version="1.0" encoding="UTF-8"?><svg id="EXPORT" xmlns="http://www.w3.org/2000/svg" width="63.58" height="63.1" viewBox="0 0 63.58 63.1"><circle cx="32.36" cy="32.05" r="30" fill="#5a4a77" stroke-width="0"/><path d="M26.41,1.02c23.58-5.85,41.62,14.29,36.2,37.25-.47,2.54-1.21,5-1.57,7.57,0,.57,0,1.18-.14,1.7-.34,1.03-1.19,1.77-1.9,2.56-1.41,1.57-2.7,3.2-4.23,4.65-14.41,13.52-37.12,9.82-48.78-5.33C.64,42.79-1.26,33.84.84,25.56c.47-2.05,1.14-4.05,2.01-5.97.39-.98,1.31-1.69,1.73-2.63.53-.88.55-2.08.8-3.2.83-2.01,1.65-4.2,3.45-5.56.86-.7,2.35-.68,3.55-.83,1.18-.09,1.89-.83,2.85-1.33,3.53-1.98,7.11-4.06,11.17-5.02h0ZM27.01,4.15c-3.65.54-7.49,1.46-10.51,3.8-.73.64-1.57,1.14-1.9,2.14-.18.51-.19,1.2-.3,1.74-.26,1.47-1.24,2.37-2.41,3.17-.64.51-1.54,1.18-2.2,1.66-.77.55-1.79,1.02-2.26,1.83-.43.83-.4,1.87-.82,2.67-.52,1.52-1.17,3.71-1.48,5.26-.7,3.59-.4,7.24.1,10.82.55,3.58,1.63,7.13,3.4,10.42,5.26,10.29,18.11,15.37,29.15,12.57,7.31-1.72,13.89-6.26,17.62-12.58.32-.89.5-1.81,1.16-2.47.28-.36.72-.64,1.14-.95,1.77-1.61,2.57-4.06,3.18-6.32,1.43-7.34-1.08-15.24-5.44-21.07-6.64-8.45-17.53-14.08-28.43-12.7h0Z" fill="#161616" stroke-width="0"/><path d="M46.97,23.2l5.02-4.85-20.76-5.95,5.23,20.96,4.46-4.31c.67,2.53.68,5.43-.94,8.33-1.52,2.73-7.72,8.49-13.37,5.89-3.18-1.46-5.68-5.09-6.07-8.83-.24-2.29.23-5.58,3.83-8.26l-4.62-6.2c-5.01,3.74-7.53,9.3-6.9,15.28.67,6.41,4.91,12.46,10.54,15.05,10.28,4.73,20.29-3.63,23.36-9.16,3.05-5.48,3.11-11.78.24-17.95Z" fill="#e0d08d" stroke-width="0"/><path d="M45.85,22.99c1.87-1.81,3.8-3.53,5.68-5.12,0,0,.28,1.12.28,1.12-6.88-2.14-13.81-4.09-20.76-5.97,0,0,.81-.78.81-.78,1.69,7,3.35,14.01,5.51,20.89,0,0-1.56-.45-1.56-.45.66-.58,5-4.47,5.54-4.96,0,0,.24,1.15.24,1.15,1.48,6.14-2.16,11.64-7.64,14.2-5.71,3.12-11.85-1.05-13.6-6.78-1.19-3.89.46-8.2,3.37-10.94.02-.08-.2,1.49-.2,1.47,0-.01-4.47-6.3-4.47-6.31,0,0,1.22.18,1.22.18-.5.71-1.05,1.3-1.57,1.91-.57.58-.88,1.32-1.94,1.53-.66.55-.7,1.5-1.2,2.13-.23.33-.78.52-.96.9-.36,2.04-1.33,3.9-1.39,6.08-.28,8.35,6.5,16.74,14.74,17.6,8.08.74,17.07-4.92,19.69-12.69,1.38-3.97,1.04-8.41-.59-12.25-.41-.91-.93-1.93-1.19-2.91h0ZM48.09,23.41c.18.19.27.33.35.59,2.16,6.31,1.52,13.67-2.52,19.06-3.89,5.3-9.98,9.64-16.8,9.37-11.6-.54-19.26-13.84-16.16-24.52.05-.47.52-.77.68-1.18.16-.41.01-.98.16-1.43.34-.87,1.2-1.4,1.61-2.21.14-.47.03-1.02.49-1.38,1.09-1.29,2.56-2.22,4.15-2.77,0,0,.4.51.4.51h0c.51.67,5.15,6.59,5.51,7.04-2.64,1.24-5.27,3.7-4.94,6.87.14,6.66,5.96,12.85,12.72,9.28,4.95-2.48,8.57-7.85,6.5-13.42,0,0,1.16.32,1.16.32,0,0-4.29,4.48-4.29,4.48,0,0-1.28,1.09-1.28,1.09-1.38-7.99-3.54-15.82-5.48-23.68,7.24,2.23,14.51,4.34,21.84,6.27,0,0,1.08.23,1.08.23-1.68,1.89-3.42,3.81-5.16,5.47h0Z" fill="#161616" stroke-width="0"/></svg>