<?xml version="1.0" encoding="UTF-8"?><svg id="EXPORT" xmlns="http://www.w3.org/2000/svg" width="667.39" height="147.73" viewBox="0 0 667.39 147.73" preserveAspectRatio="none"><rect x="4.36" y="2.12" width="659" height="141" fill="#dbd3b4" stroke-width="0"/><path d="M667.38,147.14c-222.28.67-445.16.79-667.38.27,0,0,.07-4.28.07-4.28,0,0,2.31-141,2.31-141,0,0,.03-1.98.03-1.98.14-.41,660.19.25,660.95-.04,0,0,1.98,0,1.98,0,1.3,48.65,2.2,98.05,2.04,147.04h0ZM659.34,139.1c-.15-45.72.75-90.95,1.99-136.98,0,0,2.02,2.02,2.02,2.02l-659-.04s1.98-1.98,1.98-1.98c0,0,2.31,141,2.31,141,0,0-4.29-4.29-4.29-4.29,218.57-.51,436.48-.39,654.98.27h0Z" fill="#161616" stroke-width="0"/></svg>