<?xml version="1.0" encoding="UTF-8"?><svg id="EXPORT" xmlns="http://www.w3.org/2000/svg" width="45" height="45" viewBox="0 0 45 45"><path d="M44.57,24.47C37.41,17,26.15,1.36,23.76,1.34c-.76,0-7.44,7.44-11.26,11.34C8.32,16.95.27,24.89.43,25.25c0,0,5.37-.13,8.62-.21.2,5.22.75,12.26,1.37,17.37.03.24.05.37.08.61.23.03.34.04.57.07,3.38.38,5.08.49,8.46.57.22,0,.33,0,.55.01,0-.24,0-.36-.01-.61-.11-4.39-.15-6.72-.19-10.91,2.1.05,4.2.12,6.3.21-.04.69-.06,1.39,0,2.03.29,2.93.13,6.14,0,9.22.21,0,.32-.01.53-.02,3.26-.12,4.9-.25,8.16-.65.21-.03.32-.04.54-.07.26-1.71.45-3.43.66-5.14.52-4.2.9-8.42,1.18-12.61,2.4,0,5.01-.28,7.32-.65Z" fill="#161616" stroke-width="0"/></svg>