<?xml version="1.0" encoding="UTF-8"?><svg id="EXPORT" xmlns="http://www.w3.org/2000/svg" width="45" height="45" viewBox="0 0 45 45"><path d="M22.49.3c-.92,1.69-1.68,3.47-2.77,4.57-.16.16-.41.24-.61.49-1.02,1.32-1.26,2.51-2.28,3.6-4.67,4.97-8.46,11.95-12.93,16.65-.21.24-.31.36-.51.6.36.02.54.03.9.05,3.11.17,7.36.29,10.61.45-.26,2.46-.63,5.63-.77,7.87-.19,3.14-.21,6.32-.16,9.45.34.04.51.07.84.11,1.24.14,4.51.31,5.63.42,3.19.29,9.48.25,10.19-.59.9-1.07-.63-11.83-1.13-17.5,1.65-.02,3.31,0,4.96.01,2.22,0,7.03.02,7.14-.25,0-.01-13.05-17.08-19.12-25.91Z" fill="#161616" stroke-width="0"/></svg>