<?xml version="1.0" encoding="UTF-8"?><svg id="EXPORT" xmlns="http://www.w3.org/2000/svg" width="45" height="45" viewBox="0 0 45 45"><path d="M37.84,13.96c1.73-1.66,3.48-3.57,5.16-5.47l-1.08-.23c-7.32-1.93-14.6-4.04-21.84-6.27,1.94,7.86,4.1,15.69,5.48,23.68,0,0,1.28-1.09,1.28-1.09,0,0,2.41-2.52,3.48-3.63,1.2,5.14-2.24,9.94-6.84,12.25-6.77,3.57-12.58-2.61-12.72-9.28-.34-3.17,2.3-5.64,4.94-6.87-.35-.45-4.99-6.37-5.51-7.02h0s-.4-.52-.4-.52c-1.59.55-3.06,1.48-4.15,2.77-.46.35-.35.91-.49,1.38-.4.81-1.27,1.34-1.61,2.21-.15.44,0,1.02-.16,1.43-.16.41-.63.7-.68,1.18-3.09,10.68,4.56,23.98,16.16,24.52,6.82.28,12.91-4.07,16.8-9.37,4.05-5.39,4.68-12.76,2.52-19.06-.07-.27-.17-.41-.35-.59Z" fill="#161616" stroke-width="0"/></svg>