<?xml version="1.0" encoding="UTF-8"?><svg id="EXPORT" xmlns="http://www.w3.org/2000/svg" width="45" height="45" viewBox="0 0 45 45"><path d="M31.83,20.06c-.18-.17-.28-.42-.54-.63-1.11-.88-2.74-1.54-3.72-2.48-3.22-3.09-7.77-6.01-11.21-8.13-2.15-1.33-5.4-3.64-5.8-3.44-.46.24-1.5,9.77-1.98,12.84-.15.95-.05,2.06-.01,3.01,0,.17.02.63,0,.75-.02.07-.17.17-.15.25,1.27,4.85.74,10.74,1.84,16.14.1.5.16.75.27,1.24,9.36-3.8,17.84-11.02,26.06-16.69-1.75-.91-3.58-1.75-4.75-2.88Z" fill="#161616" stroke-width="0"/></svg>